<?xml version="1.0" encoding="utf-8"?>
<!-- Generator: Adobe Illustrator 16.0.0, SVG Export Plug-In . SVG Version: 6.00 Build 0)  -->
<!DOCTYPE svg PUBLIC "-//W3C//DTD SVG 1.1//EN" "http://www.w3.org/Graphics/SVG/1.1/DTD/svg11.dtd">
<svg version="1.1" id="Layer_1" xmlns="http://www.w3.org/2000/svg" xmlns:xlink="http://www.w3.org/1999/xlink" x="0px" y="0px"
	 width="50px" height="50px" viewBox="0 0 50 50" enable-background="new 0 0 50 50" xml:space="preserve">
<circle fill="#FFFFFF" cx="25" cy="25" r="25"/>
<g>
	<g>
		<g>
			<defs>
				<path id="SVGID_1_" d="M31.576,8.346H18.423c-5.557,0-10.076,4.521-10.076,10.077v13.154c0,5.557,4.52,10.077,10.076,10.077
					h13.153c5.559,0,10.077-4.521,10.077-10.077V18.423C41.653,12.866,37.135,8.346,31.576,8.346z M39.112,31.577
					c0,4.155-3.38,7.535-7.536,7.535H18.423c-4.154,0-7.534-3.38-7.534-7.535V18.423c0-4.155,3.38-7.535,7.534-7.535h13.153
					c4.156,0,7.536,3.38,7.536,7.535V31.577z"/>
			</defs>
			<clipPath id="SVGID_2_">
				<use xlink:href="#SVGID_1_"  overflow="visible"/>
			</clipPath>
			<g clip-path="url(#SVGID_2_)">
				<linearGradient id="SVGID_3_" gradientUnits="userSpaceOnUse" x1="10.8643" y1="7.9438" x2="38.8814" y2="41.749">
					<stop  offset="0.0403" style="stop-color:#4D62AC"/>
					<stop  offset="0.2644" style="stop-color:#805082"/>
					<stop  offset="0.5016" style="stop-color:#AF405B"/>
					<stop  offset="0.712" style="stop-color:#D1343F"/>
					<stop  offset="0.8853" style="stop-color:#E52D2E"/>
					<stop  offset="1" style="stop-color:#ED2A28"/>
				</linearGradient>
				<path fill="url(#SVGID_3_)" d="M35.262,8.346H14.738c-3.53,0-6.392,2.862-6.392,6.392v20.525c0,3.529,2.861,6.392,6.392,6.392
					h20.523c3.53,0,6.392-2.862,6.392-6.392V14.737C41.653,11.208,38.792,8.346,35.262,8.346z"/>
				
					<radialGradient id="SVGID_4_" cx="15.4785" cy="40.8096" r="25.6167" gradientTransform="matrix(0.3613 -0.9324 1.1628 0.4506 -37.5684 36.8546)" gradientUnits="userSpaceOnUse">
					<stop  offset="0.0642" style="stop-color:#FCCB64"/>
					<stop  offset="0.2681" style="stop-color:#F8A852;stop-opacity:0.9121"/>
					<stop  offset="0.5281" style="stop-color:#F37639;stop-opacity:0.8"/>
					<stop  offset="0.71" style="stop-color:#C06263;stop-opacity:0.4916"/>
					<stop  offset="0.9038" style="stop-color:#8F4F8B;stop-opacity:0.163"/>
					<stop  offset="1" style="stop-color:#7C489B;stop-opacity:0"/>
				</radialGradient>
				<path fill="url(#SVGID_4_)" d="M35.262,8.346H14.738c-3.53,0-6.392,2.862-6.392,6.392v20.525c0,3.529,2.861,6.392,6.392,6.392
					h20.523c3.53,0,6.392-2.862,6.392-6.392V14.737C41.653,11.208,38.792,8.346,35.262,8.346z"/>
			</g>
		</g>
		<g>
			<defs>
				<path id="SVGID_5_" d="M25,16.682c-4.586,0-8.317,3.731-8.317,8.318c0,4.586,3.731,8.318,8.317,8.318s8.318-3.732,8.318-8.318
					C33.318,20.414,29.586,16.682,25,16.682z M25,30.775c-3.185,0-5.775-2.591-5.775-5.775c0-3.185,2.591-5.775,5.775-5.775
					c3.186,0,5.775,2.59,5.775,5.775C30.775,28.185,28.186,30.775,25,30.775z"/>
			</defs>
			<clipPath id="SVGID_6_">
				<use xlink:href="#SVGID_5_"  overflow="visible"/>
			</clipPath>
			<g clip-path="url(#SVGID_6_)">
				<linearGradient id="SVGID_7_" gradientUnits="userSpaceOnUse" x1="10.8643" y1="7.9438" x2="38.8814" y2="41.749">
					<stop  offset="0.0403" style="stop-color:#4D62AC"/>
					<stop  offset="0.2644" style="stop-color:#805082"/>
					<stop  offset="0.5016" style="stop-color:#AF405B"/>
					<stop  offset="0.712" style="stop-color:#D1343F"/>
					<stop  offset="0.8853" style="stop-color:#E52D2E"/>
					<stop  offset="1" style="stop-color:#ED2A28"/>
				</linearGradient>
				<path fill="url(#SVGID_7_)" d="M35.262,8.346H14.738c-3.53,0-6.392,2.862-6.392,6.392v20.525c0,3.529,2.861,6.392,6.392,6.392
					h20.523c3.53,0,6.392-2.862,6.392-6.392V14.737C41.653,11.208,38.792,8.346,35.262,8.346z"/>
				
					<radialGradient id="SVGID_8_" cx="15.4785" cy="40.8096" r="25.6167" gradientTransform="matrix(0.3613 -0.9324 1.1628 0.4506 -37.5684 36.8546)" gradientUnits="userSpaceOnUse">
					<stop  offset="0.0642" style="stop-color:#FCCB64"/>
					<stop  offset="0.2681" style="stop-color:#F8A852;stop-opacity:0.9121"/>
					<stop  offset="0.5281" style="stop-color:#F37639;stop-opacity:0.8"/>
					<stop  offset="0.71" style="stop-color:#C06263;stop-opacity:0.4916"/>
					<stop  offset="0.9038" style="stop-color:#8F4F8B;stop-opacity:0.163"/>
					<stop  offset="1" style="stop-color:#7C489B;stop-opacity:0"/>
				</radialGradient>
				<path fill="url(#SVGID_8_)" d="M35.262,8.346H14.738c-3.53,0-6.392,2.862-6.392,6.392v20.525c0,3.529,2.861,6.392,6.392,6.392
					h20.523c3.53,0,6.392-2.862,6.392-6.392V14.737C41.653,11.208,38.792,8.346,35.262,8.346z"/>
			</g>
		</g>
		<g>
			<defs>
				<circle id="SVGID_9_" cx="33.898" cy="16.101" r="1.988"/>
			</defs>
			<clipPath id="SVGID_10_">
				<use xlink:href="#SVGID_9_"  overflow="visible"/>
			</clipPath>
			<g clip-path="url(#SVGID_10_)">
				<linearGradient id="SVGID_11_" gradientUnits="userSpaceOnUse" x1="10.8643" y1="7.9438" x2="38.8814" y2="41.749">
					<stop  offset="0.0403" style="stop-color:#4D62AC"/>
					<stop  offset="0.2644" style="stop-color:#805082"/>
					<stop  offset="0.5016" style="stop-color:#AF405B"/>
					<stop  offset="0.712" style="stop-color:#D1343F"/>
					<stop  offset="0.8853" style="stop-color:#E52D2E"/>
					<stop  offset="1" style="stop-color:#ED2A28"/>
				</linearGradient>
				<path fill="url(#SVGID_11_)" d="M35.262,8.346H14.738c-3.53,0-6.392,2.862-6.392,6.392v20.525c0,3.529,2.861,6.392,6.392,6.392
					h20.523c3.53,0,6.392-2.862,6.392-6.392V14.737C41.653,11.208,38.792,8.346,35.262,8.346z"/>
				
					<radialGradient id="SVGID_12_" cx="15.4785" cy="40.8096" r="25.6167" gradientTransform="matrix(0.3613 -0.9324 1.1628 0.4506 -37.5684 36.8546)" gradientUnits="userSpaceOnUse">
					<stop  offset="0.0642" style="stop-color:#FCCB64"/>
					<stop  offset="0.2681" style="stop-color:#F8A852;stop-opacity:0.9121"/>
					<stop  offset="0.5281" style="stop-color:#F37639;stop-opacity:0.8"/>
					<stop  offset="0.71" style="stop-color:#C06263;stop-opacity:0.4916"/>
					<stop  offset="0.9038" style="stop-color:#8F4F8B;stop-opacity:0.163"/>
					<stop  offset="1" style="stop-color:#7C489B;stop-opacity:0"/>
				</radialGradient>
				<path fill="url(#SVGID_12_)" d="M35.262,8.346H14.738c-3.53,0-6.392,2.862-6.392,6.392v20.525c0,3.529,2.861,6.392,6.392,6.392
					h20.523c3.53,0,6.392-2.862,6.392-6.392V14.737C41.653,11.208,38.792,8.346,35.262,8.346z"/>
			</g>
		</g>
	</g>
</g>
</svg>
